PathFileType	4	(X/Y/Z)	OpenSim_Sub08_CSBaseline_Magnet.trc
DataRate	CameraRate	NumFrames	NumMarkers	Units	OrigDataRate	OrigDataStartFrame	OrigNumFrames
100	100	23	8	m	100	683	5461
Frame#	Time	torso_imu_offset_imu	pelvis_imu_offset_imu	tibia_r_imu_offset_imu	femur_r_imu_offset_imu	tibia_l_imu_offset_imu	femur_l_imu_offset_imu	toes_r_imu_offset_imu	toes_l_imu_offset_imu
				X1	Y1	Z1	X2	Y2	Z2	X3	Y3	Z3	X4	Y4	Z4	X5	Y5	Z5	X6	Y6	Z6	X7	Y7	Z7	X8		Y8	Z8	

683	6.82000000	-0.94238300	-0.16699200	0.07128900	-0.62133800	0.21728500	-0.68530300	-0.72802700	-0.43457000	-0.09252900	-0.84497100	-0.15649400	-0.13232400	-0.59472700	0.45117200	0.36645500	-0.51757800	-0.00488300	0.43457000	-0.57495100	-0.23364300	-0.48510700	-0.75756800	-0.18090800	-0.38378900
684	6.83000000	-0.94238300	-0.16918900	0.06909200	-0.61889600	0.21093800	-0.69189500	-0.74340800	-0.41381800	-0.08886700	-0.83642600	-0.16064500	-0.13891600	-0.58813500	0.45996100	0.36596700	-0.51562500	0.00390600	0.43457000	-0.56933600	-0.21289100	-0.51049800	-0.76196300	-0.17871100	-0.37475600
685	6.84000000	-0.93823200	-0.16699200	0.06469700	-0.61450200	0.20898400	-0.69433600	-0.75512700	-0.37622100	-0.08789100	-0.83862300	-0.15844700	-0.13891600	-0.58398400	0.46655300	0.36547900	-0.51342800	0.00390600	0.43676800	-0.56347700	-0.19238300	-0.52954100	-0.76904300	-0.16992200	-0.37695300
686	6.85000000	-0.94238300	-0.17138700	0.07153300	-0.61010700	0.20288100	-0.70556600	-0.76855500	-0.34912100	-0.09106400	-0.83642600	-0.16259800	-0.14331100	-0.57959000	0.47094700	0.36084000	-0.51367200	0.01025400	0.43676800	-0.55395500	-0.16357400	-0.54663100	-0.77343800	-0.17431600	-0.37255900
687	6.86000000	-0.94043000	-0.16699200	0.07128900	-0.61010700	0.20898400	-0.70825200	-0.78173800	-0.33032200	-0.09399400	-0.83618200	-0.16894500	-0.13867200	-0.57543900	0.47973600	0.36474600	-0.51391600	0.01684600	0.43652300	-0.54394500	-0.14697300	-0.55712900	-0.77783200	-0.17675800	-0.36132800
688	6.87000000	-0.94238300	-0.16699200	0.07568400	-0.60766600	0.19848600	-0.70312500	-0.78686500	-0.30322300	-0.09716800	-0.83593800	-0.17309600	-0.13842800	-0.56665000	0.49072300	0.37085000	-0.50952100	0.01904300	0.43872100	-0.53613300	-0.12426800	-0.57202100	-0.78686500	-0.17675800	-0.36352500
689	6.88000000	-0.94262700	-0.16064500	0.07104500	-0.60766600	0.19433600	-0.70288100	-0.79785200	-0.29272500	-0.09741200	-0.83593800	-0.17919900	-0.13818400	-0.56469700	0.49731400	0.36377000	-0.51416000	0.02124000	0.43652300	-0.52612300	-0.10376000	-0.58056600	-0.78662100	-0.17895500	-0.35449200
690	6.89000000	-0.94018600	-0.16918900	0.07348600	-0.60522500	0.19018600	-0.70752000	-0.79858400	-0.27392600	-0.09814500	-0.83154300	-0.18530300	-0.13793900	-0.55810500	0.50390600	0.36108400	-0.51220700	0.02783200	0.43652300	-0.52026400	-0.09545900	-0.59106400	-0.79126000	-0.17700200	-0.34545900
691	6.90000000	-0.93798800	-0.17138700	0.07812500	-0.60742200	0.18823200	-0.71215800	-0.80908200	-0.26757800	-0.09619100	-0.82910200	-0.19360400	-0.13769500	-0.55151400	0.50830100	0.36303700	-0.50781200	0.02783200	0.44091800	-0.51611300	-0.08935500	-0.59545900	-0.79785200	-0.18139600	-0.34326200
692	6.91000000	-0.93823200	-0.16699200	0.07788100	-0.60327100	0.19018600	-0.71215800	-0.80737300	-0.25927700	-0.09204100	-0.82495100	-0.19580100	-0.13745100	-0.54321300	0.52368200	0.36206100	-0.50585900	0.03442400	0.44091800	-0.51025400	-0.07690400	-0.59985400	-0.80468800	-0.17944300	-0.32763700
693	6.92000000	-0.93798800	-0.17334000	0.07592800	-0.60302700	0.18383800	-0.70947300	-0.80737300	-0.25732400	-0.09204100	-0.83325200	-0.19995100	-0.12817400	-0.53881800	0.52587900	0.36206100	-0.51269500	0.04296900	0.43408200	-0.50830100	-0.07275400	-0.60180700	-0.80200200	-0.18603500	-0.32299800
694	6.93000000	-0.93603500	-0.16699200	0.08447300	-0.60083000	0.18408200	-0.72363300	-0.80957000	-0.25317400	-0.08764600	-0.83300800	-0.20825200	-0.12573200	-0.53442400	0.53491200	0.36157200	-0.50415000	0.04956100	0.43408200	-0.51049800	-0.06884800	-0.60205100	-0.80224600	-0.18383800	-0.31420900
695	6.94000000	-0.93823200	-0.16699200	0.07788100	-0.59668000	0.18603500	-0.71899400	-0.80957000	-0.25317400	-0.08984400	-0.82885700	-0.20605500	-0.11889600	-0.52148400	0.54589800	0.36084000	-0.50854500	0.04956100	0.44311500	-0.50854500	-0.06250000	-0.60424800	-0.80639600	-0.18847700	-0.29150400
696	6.95000000	-0.93823200	-0.16918900	0.08447300	-0.60083000	0.18603500	-0.72119100	-0.80712900	-0.26342800	-0.08276400	-0.83325200	-0.19995100	-0.11450200	-0.52172900	0.55468800	0.36254900	-0.50195300	0.05395500	0.43847700	-0.51660200	-0.07299800	-0.59765600	-0.80835000	-0.19506800	-0.30053700
697	6.96000000	-0.93603500	-0.17138700	0.07812500	-0.59863300	0.18408200	-0.71655300	-0.80908200	-0.26977500	-0.08032200	-0.82910200	-0.20214800	-0.10766600	-0.51293900	0.55908200	0.36010700	-0.50659200	0.06030300	0.44067400	-0.51660200	-0.07299800	-0.59985400	-0.81274400	-0.19726600	-0.28491200
698	6.97000000	-0.93603500	-0.17138700	0.08691400	-0.60107400	0.18823200	-0.71435500	-0.80224600	-0.28442400	-0.07543900	-0.83300800	-0.20825200	-0.10498000	-0.50634800	0.57006800	0.36377000	-0.50244100	0.06469700	0.42944300	-0.52270500	-0.07714800	-0.58935500	-0.81054700	-0.19726600	-0.27807600
699	6.98000000	-0.94018600	-0.17334000	0.08252000	-0.59668000	0.18823200	-0.71679700	-0.79785200	-0.29492200	-0.07055700	-0.82885700	-0.20410200	-0.09594700	-0.50195300	0.57226600	0.36377000	-0.50463900	0.06909200	0.43383800	-0.53271500	-0.09375000	-0.58081100	-0.81494100	-0.20190400	-0.26245100
700	6.99000000	-0.93798800	-0.17138700	0.07812500	-0.60058600	0.17968800	-0.71411100	-0.79711900	-0.31372100	-0.06323200	-0.82910200	-0.20214800	-0.08691400	-0.49121100	0.58105500	0.35424800	-0.49853500	0.08007800	0.43359400	-0.54467800	-0.11010700	-0.57226600	-0.80810500	-0.20629900	-0.25561500
701	7	-0.94238300	-0.16918900	0.08227500	-0.59668000	0.18823200	-0.71215800	-0.79736300	-0.30957000	-0.06347700	-0.83520500	-0.20629900	-0.07983400	-0.48461900	0.58764600	0.35815400	-0.49658200	0.08886700	0.43579100	-0.54663100	-0.11840800	-0.55981400	-0.80786100	-0.21289100	-0.23535200
702	7.01000000	-0.93798800	-0.17334000	0.07812500	-0.59863300	0.18603500	-0.71655300	-0.79296900	-0.31152300	-0.06103500	-0.82885700	-0.21240200	-0.07959000	-0.47827100	0.59643600	0.35327100	-0.49682600	0.09741200	0.43798800	-0.56518600	-0.13110400	-0.53881800	-0.80737300	-0.22192400	-0.22631800
703	7.02000000	-0.94213900	-0.17773400	0.07397500	-0.59887700	0.19238300	-0.71923800	-0.79541000	-0.30542000	-0.07031200	-0.82861300	-0.21655300	-0.07495100	-0.47168000	0.60083000	0.35302700	-0.49951200	0.10815400	0.43554700	-0.58129900	-0.14770500	-0.52197300	-0.80712900	-0.22851600	-0.21044900
704	7.03000000	-0.93798800	-0.17553700	0.06933600	-0.60107400	0.19018600	-0.71435500	-0.79736300	-0.30957000	-0.05444300	-0.82226600	-0.22290000	-0.07251000	-0.46289100	0.60961900	0.35693400	-0.49292000	0.11279300	0.43554700	-0.58569300	-0.14575200	-0.50537100	-0.80249000	-0.23291000	-0.19921900
705	7.04000000	-0.93994100	-0.17773400	0.07177700	-0.60351600	0.19873000	-0.70776400	-0.79467800	-0.32421900	-0.04052700	-0.82812500	-0.23315400	-0.07202100	-0.44995100	0.62500000	0.34936500	-0.49340800	0.12573200	0.42871100	-0.60424800	-0.15429700	-0.48242200	-0.80029300	-0.23315400	-0.17016600
